<svg id="Capa_1" enable-background="new 0 0 512 512" height="512" viewBox="0 0 512 512" width="512" xmlns="http://www.w3.org/2000/svg"><g><path d="m503.633 391.048c-3.264-7.614-12.083-11.137-19.696-7.878-50.011 21.434-71.381 70.2-72.266 72.266-3.264 7.615.264 16.433 7.878 19.696 1.927.826 3.931 1.217 5.902 1.217 5.819 0 11.356-3.407 13.794-9.095.17-.396 17.405-39.751 56.51-56.51 7.614-3.263 11.141-12.08 7.878-19.696z"/><path d="m472.135 348.548c7.624-3.241 11.177-12.049 7.935-19.673-3.239-7.623-12.047-11.176-19.673-7.935-76.969 32.725-109.604 107.776-110.955 110.955-3.237 7.613.307 16.396 7.913 19.647 1.92.821 3.916 1.21 5.881 1.21 5.819 0 11.36-3.41 13.803-9.092.286-.668 29.517-67.229 95.096-95.112z"/><path d="m456.443 283.203c7.899-2.493 12.283-10.919 9.79-18.819s-10.914-12.279-18.819-9.79c-11.131 3.513-21.952 7.848-32.414 12.965v-209.059c0-16.542-13.458-30-30-30h-121c-22.737 0-42.996 10.756-56 27.432-13.004-16.677-33.263-27.432-56-27.432h-122c-16.542 0-30 13.458-30 30v290c0 16.542 13.458 30 30 30h271.398c-12.64 22.779-18.004 39.466-18.302 40.409-2.493 7.89 1.877 16.296 9.763 18.802 1.509.48 3.037.708 4.541.708 6.354 0 12.256-4.073 14.294-10.446.09-.279 9.189-28.285 31.781-60.091 29.783-41.932 67.791-70.423 112.968-84.679zm-192.443-224.703h121v209.444c-68.074-1.187-127.33-1.955-162 25.25v-193.694c0-22.608 18.393-41 41-41zm-112 0c22.607 0 41 18.393 41 41v193.696c-34.842-27.34-94.509-26.427-163-25.231v-209.465zm-122 239.468c66.336-1.161 123.599-2.112 148.343 22.204 7.122 6.999 11.587 16.35 13.527 28.327h-161.87zm290.471 50.532h-96.341c1.939-11.978 6.404-21.328 13.526-28.327 22.487-22.101 71.843-23.325 130.458-22.498-17.605 14.371-33.598 31.407-47.643 50.825z"/><circle cx="497" cy="468.5" r="15"/></g></svg>